<?xml version="1.0" encoding="utf-8"?>
<!-- Generator: Adobe Illustrator 23.0.0, SVG Export Plug-In . SVG Version: 6.00 Build 0)  -->
<svg version="1.1" id="Layer_1" xmlns="http://www.w3.org/2000/svg" xmlns:xlink="http://www.w3.org/1999/xlink" x="0px" y="0px"
	 viewBox="0 0 2771.6 1865.8" style="enable-background:new 0 0 2771.6 1865.8;" xml:space="preserve">
<style type="text/css">
	.st0{fill-rule:evenodd;clip-rule:evenodd;fill:#FF86C0;}
	.st1{fill-rule:evenodd;clip-rule:evenodd;fill:#D93389;}
	.st2{fill-rule:evenodd;clip-rule:evenodd;fill:#92278F;}
	.st3{fill-rule:evenodd;clip-rule:evenodd;fill:#B41D8E;}
	.st4{fill-rule:evenodd;clip-rule:evenodd;fill:#EF59A1;}
	.st5{fill-rule:evenodd;clip-rule:evenodd;fill:#371466;}
	.st6{fill-rule:evenodd;clip-rule:evenodd;fill:#702C91;}
	.st7{fill-rule:evenodd;clip-rule:evenodd;fill:#562988;}
	.st8{fill-rule:evenodd;clip-rule:evenodd;fill:#272262;}
	.st9{fill-rule:evenodd;clip-rule:evenodd;fill:#1D3D88;}
	.st10{fill-rule:evenodd;clip-rule:evenodd;fill:#252F77;}
	.st11{fill-rule:evenodd;clip-rule:evenodd;fill:#084F9D;}
	.st12{fill-rule:evenodd;clip-rule:evenodd;fill:#1B87C7;}
	.st13{fill-rule:evenodd;clip-rule:evenodd;fill:#0CB699;}
	.st14{fill-rule:evenodd;clip-rule:evenodd;fill:#0058A2;}
	.st15{fill-rule:evenodd;clip-rule:evenodd;fill:#3BC3F3;}
	.st16{fill-rule:evenodd;clip-rule:evenodd;fill:#0FE9C4;}
</style>
<g>
	<g>
		<polygon id="SVGID_1_" class="st0" points="2019.7,482.6 2019.6,482.6 1816,278.8 2019.6,75 2019.7,75 		"/>
	</g>
	<g>
		<polygon id="SVGID_2_" class="st1" points="2020.7,906.9 2020.6,907 1817,703.1 2020.6,499.3 2020.7,499.4 		"/>
	</g>
	<g>
		<polygon id="SVGID_3_" class="st2" points="2020.7,1331.3 2020.6,1331.3 1817,1127.5 2020.6,923.7 2020.7,923.7 		"/>
	</g>
	<g>
		<polygon id="SVGID_4_" class="st3" points="1809.6,1119.1 1809.5,1119.1 1809.5,711.6 1809.6,711.5 2013.3,915.3 		"/>
	</g>
	<g>
		<polygon id="SVGID_5_" class="st4" points="1809.6,694.8 1809.5,694.7 1809.5,287.2 1809.6,287.2 2013.3,491 		"/>
	</g>
	<g>
		<polygon id="SVGID_6_" class="st2" points="1809.5,1119.1 1605.9,915.3 1809.5,711.6 		"/>
	</g>
	<g>
		<polygon id="SVGID_7_" class="st5" points="1809.5,694.7 1605.9,491 1809.5,287.2 		"/>
	</g>
	<g>
		<polygon id="SVGID_8_" class="st6" points="1801.7,702.6 1801.9,702.8 1598.2,906.6 1394.5,702.8 1394.6,702.6 		"/>
	</g>
	<g>
		<polygon id="SVGID_9_" class="st7" points="1394.6,702.9 1394.5,702.8 1598.2,499 1801.9,702.8 1801.7,702.9 		"/>
	</g>
	<g>
		<polygon id="SVGID_10_" class="st5" points="1386.5,1119.1 1386.5,711.5 1590.2,915.3 		"/>
	</g>
	<g>
		<polygon id="SVGID_11_" class="st8" points="1386.5,1119.1 1182.9,915.3 1386.5,711.5 		"/>
	</g>
	<g>
		<polygon id="SVGID_12_" class="st9" points="1377.7,702.6 1377.8,702.8 1174.1,906.6 970.5,702.8 970.6,702.6 		"/>
	</g>
	<g>
		<polygon id="SVGID_13_" class="st10" points="970.6,702.9 970.5,702.8 1174.1,499 1377.8,702.8 1377.7,702.9 		"/>
	</g>
	<g>
		<polygon id="SVGID_14_" class="st11" points="960.8,1119.1 960.8,711.6 1164.4,915.3 		"/>
	</g>
	<g>
		<polygon id="SVGID_15_" class="st8" points="960.8,694.7 960.8,287.2 1164.4,491 		"/>
	</g>
	<g>
		<polygon id="SVGID_16_" class="st12" points="960.8,1119.1 960.7,1119.1 757.1,915.3 960.7,711.5 960.8,711.6 		"/>
	</g>
	<g>
		<polygon id="SVGID_17_" class="st13" points="960.8,694.7 960.7,694.8 757.1,491 960.7,287.2 960.8,287.2 		"/>
	</g>
	<g>
		<polygon id="SVGID_18_" class="st14" points="748.7,1331.3 748.7,1331.3 748.7,923.7 748.7,923.7 952.4,1127.5 		"/>
	</g>
	<g>
		<polygon id="SVGID_19_" class="st15" points="748.7,907 748.7,906.9 748.7,499.4 748.7,499.3 952.4,703.1 		"/>
	</g>
	<g>
		<polygon id="SVGID_20_" class="st16" points="748.7,482.6 748.7,482.6 748.7,75 748.7,75 952.4,278.8 		"/>
	</g>
</g>
<g>
	<g>
		<path d="M224.9,1705h-3.2l-75.4-183.9H75v273.6h56.1V1616h2.3l70.8,177.4h38.2l70.8-176.8h2.3v178.1h56.1v-273.6h-71.4L224.9,1705
			z M566.7,1612.8c-8.8-8.6-19-15.1-30.7-19.4c-11.7-4.3-24.3-6.5-37.9-6.5c-20.1,0-37.7,4.5-52.6,13.4
			c-14.9,8.9-26.5,21.3-34.7,37.3c-8.2,15.9-12.3,34.5-12.3,55.6c0,21.6,4.1,40.4,12.3,56.2c8.2,15.8,19.9,28,35.1,36.6
			c15.2,8.6,33.3,12.9,54.4,12.9c16.9,0,31.9-2.6,44.8-7.8c13-5.2,23.6-12.5,31.8-21.9c8.2-9.4,13.7-20.4,16.4-33.1l-52.6-3.5
			c-2,5.2-4.8,9.5-8.6,13.1c-3.7,3.6-8.2,6.2-13.5,8c-5.3,1.8-11,2.7-17.4,2.7c-9.5,0-17.8-2-24.7-6c-6.9-4-12.3-9.7-16.1-17.1
			c-3.8-7.4-5.7-16.2-5.7-26.3v-0.1h139.8v-15.6c0-17.5-2.5-32.7-7.3-45.8C582.3,1632.3,575.5,1621.4,566.7,1612.8z M454.9,1671.5
			c0.3-7.4,2.2-14.1,5.7-20.2c3.7-6.6,8.9-11.9,15.6-15.9c6.6-4,14.3-5.9,22.9-5.9c8.3,0,15.6,1.8,21.8,5.4
			c6.3,3.6,11.2,8.6,14.8,14.9c3.6,6.3,5.3,13.6,5.3,21.8H454.9z M756.1,1624h-1.7c-2.5-5.5-6.1-11.2-10.9-16.9
			c-4.8-5.7-11-10.6-18.7-14.4c-7.7-3.9-17.3-5.8-28.8-5.8c-15.1,0-28.9,3.9-41.5,11.7c-12.6,7.8-22.7,19.5-30.3,35.1
			c-7.6,15.6-11.4,35.2-11.4,58.7c0,22.9,3.7,42.2,11,57.9c7.3,15.7,17.3,27.6,29.9,35.7c12.6,8.1,26.7,12.1,42.3,12.1
			c11,0,20.4-1.8,28.1-5.5c7.7-3.7,14-8.3,18.8-13.8c4.9-5.6,8.6-11.2,11.3-16.9h2.4v32.9h56.1v-273.6h-56.8V1624z M752.1,1724.1
			c-3.4,9.1-8.3,16.1-14.7,21.2c-6.4,5-14.1,7.5-23.3,7.5c-9.4,0-17.2-2.6-23.6-7.7c-6.4-5.1-11.2-12.2-14.6-21.4
			c-3.3-9.1-5-19.7-5-31.6c0-11.8,1.6-22.3,4.9-31.3c3.3-9,8.2-16,14.6-21.1c6.4-5.1,14.3-7.6,23.7-7.6c9.2,0,17,2.5,23.4,7.3
			c6.4,4.9,11.3,11.8,14.7,20.8c3.4,9,5.1,19.6,5.1,31.8C757.3,1704.4,755.5,1715,752.1,1724.1z M848.2,1794.8h56.9v-205.2h-56.9
			V1794.8z M898.6,1513.9c-6-5.6-13.3-8.4-21.8-8.4c-8.4,0-15.6,2.8-21.6,8.5c-6.1,5.7-9.1,12.4-9.1,20.4c0,7.9,3,14.7,9.1,20.3
			c6.1,5.6,13.3,8.4,21.8,8.4c8.5,0,15.7-2.8,21.7-8.5c6-5.7,9-12.4,9-20.4C907.6,1526.3,904.6,1519.5,898.6,1513.9z M1087,1603.3
			c-8.2-5.6-17.5-9.8-27.9-12.4c-10.5-2.7-21.4-4-32.8-4c-16.4,0-30.8,2.5-43.2,7.4c-12.4,4.9-22.6,12-30.4,21.1
			c-7.8,9.1-13.1,19.9-15.8,32.4l52.6,4.3c2-6.8,6-12.4,12-16.9c6.1-4.5,14.2-6.7,24.5-6.7c9.7,0,17.2,2.3,22.5,6.9
			c5.3,4.6,8,11.2,8,19.6v0.8c0,4.4-1.6,7.7-4.9,9.9c-3.3,2.2-8.6,3.9-15.9,5c-7.3,1.1-16.9,2.3-28.9,3.5c-10.2,1-19.8,2.7-29.1,5.1
			s-17.4,6-24.7,10.7c-7.2,4.7-12.9,11-17.1,18.7c-4.2,7.8-6.3,17.3-6.3,28.7c0,13.5,3,24.8,8.9,33.9c5.9,9,14,15.9,24.3,20.4
			c10.2,4.6,21.9,6.9,35,6.9c10.2,0,19.1-1.4,26.9-4.1c7.7-2.7,14.4-6.5,19.9-11.4c5.5-4.9,9.9-10.5,13.2-16.9h1.6v28.5h54v-138.4
			c0-12.2-2.4-22.7-7.1-31.5C1101.5,1616.1,1095.1,1608.9,1087,1603.3z M1056.8,1721.4c0,7.2-1.8,13.7-5.5,19.4
			c-3.7,5.7-8.7,10.2-15.1,13.6c-6.4,3.3-13.8,5-22.2,5c-8.7,0-15.9-2-21.6-6.1c-5.7-4.1-8.5-10-8.5-17.7c0-5.3,1.4-9.8,4.1-13.4
			c2.8-3.6,6.6-6.5,11.6-8.6c5-2.1,10.8-3.7,17.5-4.7c3.1-0.4,6.6-1,10.4-1.5c3.8-0.6,7.7-1.2,11.5-2c3.8-0.8,7.3-1.6,10.4-2.5
			c3.1-0.9,5.5-2,7.3-3.1V1721.4z M1394.6,1693.2h-2.4l-118.1-172.1h-50.8v273.6h57.9v-172.2h2l119.1,172.2h50v-273.6h-57.6V1693.2z
			 M1647.4,1612.8c-8.8-8.6-19-15.1-30.7-19.4c-11.7-4.3-24.3-6.5-37.9-6.5c-20.1,0-37.7,4.5-52.6,13.4
			c-14.9,8.9-26.5,21.3-34.7,37.3c-8.2,15.9-12.3,34.5-12.3,55.6c0,21.6,4.1,40.4,12.3,56.2c8.2,15.8,19.9,28,35.1,36.6
			c15.2,8.6,33.3,12.9,54.4,12.9c16.9,0,31.9-2.6,44.8-7.8c13-5.2,23.6-12.5,31.8-21.9c8.2-9.4,13.7-20.4,16.4-33.1l-52.6-3.5
			c-2,5.2-4.8,9.5-8.6,13.1c-3.7,3.6-8.2,6.2-13.5,8c-5.3,1.8-11,2.7-17.4,2.7c-9.5,0-17.8-2-24.7-6c-6.9-4-12.3-9.7-16.1-17.1
			c-3.8-7.4-5.7-16.2-5.7-26.3v-0.1h139.8v-15.6c0-17.5-2.5-32.7-7.3-45.8C1663,1632.3,1656.2,1621.4,1647.4,1612.8z M1535.6,1671.5
			c0.3-7.4,2.2-14.1,5.7-20.2c3.7-6.6,8.9-11.9,15.6-15.9c6.6-4,14.3-5.9,22.9-5.9c8.3,0,15.6,1.8,21.8,5.4
			c6.3,3.6,11.2,8.6,14.8,14.9c3.6,6.3,5.3,13.6,5.3,21.8H1535.6z M1798.9,1751c-2.7,0.5-5.3,0.7-8,0.7c-3.8,0-7.2-0.6-10.1-1.7
			c-2.9-1.2-5.1-3.2-6.7-6.1c-1.6-2.9-2.4-7-2.4-12.2v-99.4h38.6v-42.8h-38.6v-49.2h-56.9v49.2h-28.1v42.8h28.1v106.9
			c-0.1,13.5,2.7,24.6,8.4,33.4c5.7,8.8,13.7,15.3,24,19.5c10.3,4.2,22.3,6,36,5.5c7.4-0.3,13.7-1,18.8-2.2c5.2-1.2,9.2-2.2,12-3.1
			l-9-42.4C1803.7,1750.2,1801.6,1750.5,1798.9,1751z M2037,1726.6h-1.7l-33.7-137.1H1945l-33.1,137.9h-1.9l-31.8-137.9h-57.6
			l55.9,205.2h60.1l35.3-129.1h2.5l35.3,129.1h60.3l55.7-205.2h-57.5L2037,1726.6z M2286,1600.2c-15.1-8.9-33-13.3-53.8-13.3
			c-20.8,0-38.7,4.4-53.8,13.3c-15.1,8.9-26.7,21.2-34.9,37.1c-8.2,15.9-12.3,34.5-12.3,55.7c0,21,4.1,39.5,12.3,55.4
			c8.2,15.9,19.8,28.3,34.9,37.1c15.1,8.9,33,13.3,53.8,13.3c20.8,0,38.7-4.4,53.8-13.3c15.1-8.9,26.7-21.2,34.9-37.1
			c8.2-15.9,12.3-34.4,12.3-55.4c0-21.2-4.1-39.8-12.3-55.7C2312.8,1621.4,2301.1,1609,2286,1600.2z M2270.5,1724.5
			c-3.3,9.4-8,16.7-14.4,22.1c-6.3,5.4-14.2,8.1-23.7,8.1c-9.5,0-17.5-2.7-24-8.1c-6.5-5.4-11.3-12.8-14.6-22.1
			c-3.3-9.4-4.9-20-4.9-31.9c0-11.9,1.6-22.6,4.9-31.9c3.3-9.4,8.1-16.7,14.6-22.2c6.5-5.4,14.5-8.2,24-8.2c9.4,0,17.3,2.7,23.7,8.2
			c6.3,5.4,11.1,12.8,14.4,22.2c3.3,9.4,4.9,20,4.9,31.9C2275.4,1704.5,2273.8,1715.2,2270.5,1724.5z M2465.8,1586.6
			c-11.5,0-21.6,3.3-30.5,9.8c-8.8,6.5-15.1,16.2-18.8,28.9h-2.1v-35.8h-55.2v205.2h56.9v-116.1c0-8.4,1.9-15.8,5.7-22.2
			c3.8-6.4,9-11.4,15.5-15c6.5-3.6,14-5.4,22.4-5.4c3.9,0,8.2,0.3,13,0.9c4.7,0.6,8.4,1.3,11.1,2.1v-50.5c-2.5-0.6-5.4-1.1-8.7-1.5
			C2471.7,1586.8,2468.6,1586.6,2465.8,1586.6z M2616.6,1678.5l76.1-88.9h-65.3l-65.7,77.9h-3.1v-146.3h-56.9v273.6h56.9v-65.2
			l15.4-17.6l55.9,82.8h66.7L2616.6,1678.5z"/>
	</g>
</g>
</svg>
